<svg xmlns="http://www.w3.org/2000/svg" viewBox="0 0 100 100" width="1024" height="1024" role="img" aria-label="Olimpo — Puntaje Nacional">
  <title>Olimpo — Puntaje Nacional</title>
  <circle cx="50" cy="55" r="40" fill="#bdeaf2" opacity=".4"/>
  <circle cx="50" cy="55" r="31" fill="#d6f3f8" opacity=".45"/>
  <g fill="#fff">
    <path d="M13 30 l1.6 4.5 4.5 1.6 -4.5 1.6 -1.6 4.5 -1.6 -4.5 -4.5 -1.6 4.5 -1.6z"/>
    <path d="M88 38 l1.4 4 4 1.4 -4 1.4 -1.4 4 -1.4 -4 -4 -1.4 4 -1.4z"/>
    <path d="M82 74 l1.2 3.3 3.3 1.2 -3.3 1.2 -1.2 3.3 -1.2 -3.3 -3.3 -1.2 3.3 -1.2z"/>
    <circle cx="20" cy="62" r="1.8"/><circle cx="80" cy="22" r="1.6"/><circle cx="30" cy="20" r="1.4"/>
  </g>
  <path d="M29 38 q-9 20 -2 38 q6 -5 7 -18 q2 14 5 16 q5 -18 1 -36z" fill="#c23f76"/>
  <path d="M71 38 q9 20 2 38 q-6 -5 -7 -18 q-2 14 -5 16 q-5 -18 -1 -36z" fill="#c23f76"/>
  <path d="M30 42 q20 -15 40 0 q5 23 -3 32 q-17 13 -34 0 q-8 -9 -3 -32z" fill="#e85a9c"/>
  <path d="M38 33 q12 -7 24 0 q-3 -8 -12 -8 q-9 0 -12 8z" fill="#c23f76"/>
  <g fill="#ffd24a" stroke="#e0a800" stroke-width=".7">
    <ellipse cx="33" cy="29" rx="3.4" ry="1.7" transform="rotate(-40 33 29)"/>
    <ellipse cx="39" cy="25" rx="3.4" ry="1.7" transform="rotate(-25 39 25)"/>
    <ellipse cx="46" cy="22.5" rx="3.4" ry="1.7" transform="rotate(-12 46 22.5)"/>
    <ellipse cx="54" cy="22.5" rx="3.4" ry="1.7" transform="rotate(12 54 22.5)"/>
    <ellipse cx="61" cy="25" rx="3.4" ry="1.7" transform="rotate(25 61 25)"/>
    <ellipse cx="67" cy="29" rx="3.4" ry="1.7" transform="rotate(40 67 29)"/>
  </g>
  <path d="M66 49 q11 -8 8 -22" stroke="#e85a9c" stroke-width="6.5" fill="none" stroke-linecap="round"/>
  <path d="M74 25 l-8 16 7 -1.5 -6 14 16 -22 -7 1.5 6 -12z" fill="#ffd24a" stroke="#e0a800" stroke-width="1"/>
  <circle cx="35" cy="58" r="3.4" fill="#ff9bb5" opacity=".5"/><circle cx="65" cy="58" r="3.4" fill="#ff9bb5" opacity=".5"/>
  <circle cx="43" cy="50" r="3.5" fill="#fff"/><circle cx="58" cy="50" r="3.5" fill="#fff"/><circle cx="43.6" cy="50.6" r="1.82" fill="#2e3b42"/><circle cx="58.6" cy="50.6" r="1.82" fill="#2e3b42"/><circle cx="41.775" cy="48.775" r="0.7000000000000001" fill="#fff"/><circle cx="56.775" cy="48.775" r="0.7000000000000001" fill="#fff"/><path d="M39.5 46.5 l-2.5 -2.2 M41 45.5 l-1.5 -3" stroke="#2e3b42" stroke-width="1.3" stroke-linecap="round"/><path d="M61.5 46.5 l2.5 -2.2 M60 45.5 l1.5 -3" stroke="#2e3b42" stroke-width="1.3" stroke-linecap="round"/>
  <path d="M48 60 q3 3 6 0" stroke="#2e3b42" stroke-width="2" fill="none" stroke-linecap="round"/>
</svg>
